<?xml version="1.0" encoding="UTF-8" standalone="no"?>
<!DOCTYPE svg PUBLIC "-//W3C//DTD SVG 1.1//EN" "http://www.w3.org/Graphics/SVG/1.1/DTD/svg11.dtd">
<svg width="100%" height="100%" viewBox="0 0 1965 655" version="1.1" xmlns="http://www.w3.org/2000/svg" xmlns:xlink="http://www.w3.org/1999/xlink" xml:space="preserve" xmlns:serif="http://www.serif.com/" style="fill-rule:evenodd;clip-rule:evenodd;stroke-linejoin:round;stroke-miterlimit:2;">
    <g transform="matrix(1,0,0,1,-497.109,-647.733)">
        <g transform="matrix(4.16667,0,0,4.16667,-5057.84,-131.607)">
            <g transform="matrix(2.55848,0,0,2.55848,1571.47,343.495)">
                <rect x="0.947" y="-10.732" width="0.661" height="10.732" style="fill:white;fill-rule:nonzero;"/>
                <path d="M3.352,-10.732L4.178,-10.732L10.957,-0.887L10.987,-0.887L10.987,-10.732L11.649,-10.732L11.649,0L10.867,0L4.043,-9.92L4.013,-9.92L4.013,0L3.352,0L3.352,-10.732Z" style="fill:white;fill-rule:nonzero;"/>
                <path d="M13.392,-10.732L16.909,-10.732C17.871,-10.732 18.67,-10.581 19.306,-10.281C19.943,-9.98 20.451,-9.579 20.832,-9.078C21.213,-8.577 21.481,-8.006 21.636,-7.365C21.791,-6.724 21.869,-6.062 21.869,-5.381C21.869,-4.619 21.771,-3.91 21.576,-3.254C21.381,-2.598 21.078,-2.029 20.667,-1.548C20.256,-1.067 19.737,-0.689 19.111,-0.413C18.485,-0.138 17.741,0 16.879,0L13.392,0L13.392,-10.732ZM16.939,-0.571C17.44,-0.571 17.944,-0.649 18.45,-0.804C18.956,-0.959 19.414,-1.22 19.825,-1.586C20.236,-1.951 20.569,-2.442 20.825,-3.059C21.08,-3.675 21.208,-4.449 21.208,-5.381C21.208,-6.112 21.135,-6.739 20.99,-7.26C20.845,-7.781 20.654,-8.219 20.419,-8.575C20.183,-8.931 19.913,-9.211 19.607,-9.417C19.301,-9.622 18.986,-9.78 18.66,-9.89C18.335,-10 18.009,-10.073 17.683,-10.108C17.358,-10.143 17.064,-10.161 16.804,-10.161L14.053,-10.161L14.053,-0.571L16.939,-0.571Z" style="fill:white;fill-rule:nonzero;"/>
                <path d="M23.928,-10.732L23.928,-4.299C23.928,-4.088 23.938,-3.843 23.958,-3.562C23.978,-3.282 24.029,-2.994 24.109,-2.698C24.189,-2.402 24.302,-2.112 24.447,-1.826C24.592,-1.541 24.79,-1.285 25.041,-1.06C25.291,-0.834 25.599,-0.654 25.965,-0.519C26.331,-0.383 26.774,-0.316 27.295,-0.316C27.956,-0.316 28.51,-0.408 28.956,-0.594C29.402,-0.779 29.763,-1.045 30.038,-1.39C30.314,-1.736 30.512,-2.154 30.632,-2.645C30.752,-3.136 30.812,-3.687 30.812,-4.299L30.812,-10.732L31.474,-10.732L31.474,-4.299C31.474,-3.657 31.406,-3.061 31.271,-2.51C31.135,-1.959 30.907,-1.478 30.587,-1.067C30.266,-0.656 29.838,-0.333 29.302,-0.098C28.766,0.138 28.097,0.256 27.295,0.256C26.664,0.256 26.123,0.175 25.672,0.015C25.221,-0.145 24.848,-0.353 24.552,-0.609C24.256,-0.864 24.024,-1.157 23.853,-1.488C23.683,-1.819 23.553,-2.152 23.462,-2.488C23.372,-2.823 23.317,-3.149 23.297,-3.464C23.277,-3.78 23.267,-4.058 23.267,-4.299L23.267,-10.732L23.928,-10.732Z" style="fill:white;fill-rule:nonzero;"/>
                <path d="M40.221,-7.665C40.201,-8.126 40.103,-8.527 39.928,-8.868C39.753,-9.209 39.515,-9.494 39.214,-9.725C38.914,-9.955 38.555,-10.128 38.139,-10.243C37.724,-10.358 37.27,-10.416 36.779,-10.416C36.479,-10.416 36.155,-10.381 35.81,-10.311C35.464,-10.241 35.143,-10.118 34.848,-9.943C34.552,-9.767 34.309,-9.532 34.119,-9.236C33.928,-8.941 33.833,-8.572 33.833,-8.131C33.833,-7.701 33.939,-7.35 34.149,-7.079C34.359,-6.809 34.635,-6.591 34.976,-6.425C35.316,-6.26 35.707,-6.127 36.148,-6.027C36.589,-5.927 37.035,-5.832 37.486,-5.742C37.947,-5.651 38.395,-5.544 38.831,-5.418C39.267,-5.293 39.658,-5.123 40.003,-4.907C40.349,-4.692 40.627,-4.411 40.837,-4.066C41.048,-3.72 41.153,-3.287 41.153,-2.766C41.153,-2.204 41.033,-1.733 40.792,-1.353C40.552,-0.972 40.249,-0.661 39.883,-0.421C39.517,-0.18 39.111,-0.008 38.666,0.098C38.22,0.203 37.791,0.256 37.38,0.256C36.749,0.256 36.158,0.188 35.607,0.053C35.056,-0.083 34.575,-0.303 34.164,-0.609C33.753,-0.914 33.43,-1.308 33.195,-1.789C32.959,-2.27 32.846,-2.856 32.856,-3.547L33.518,-3.547C33.488,-2.956 33.573,-2.457 33.773,-2.052C33.974,-1.646 34.252,-1.313 34.607,-1.052C34.963,-0.792 35.381,-0.604 35.862,-0.488C36.343,-0.373 36.849,-0.316 37.38,-0.316C37.701,-0.316 38.044,-0.356 38.41,-0.436C38.776,-0.516 39.111,-0.651 39.417,-0.842C39.723,-1.032 39.978,-1.283 40.184,-1.593C40.389,-1.904 40.492,-2.295 40.492,-2.766C40.492,-3.216 40.387,-3.585 40.176,-3.87C39.966,-4.156 39.688,-4.386 39.342,-4.562C38.996,-4.737 38.605,-4.877 38.17,-4.983C37.734,-5.088 37.285,-5.185 36.824,-5.276C36.373,-5.366 35.928,-5.471 35.487,-5.591C35.046,-5.712 34.655,-5.874 34.314,-6.08C33.974,-6.285 33.698,-6.551 33.488,-6.876C33.277,-7.202 33.172,-7.62 33.172,-8.131C33.172,-8.642 33.28,-9.081 33.495,-9.447C33.711,-9.812 33.991,-10.108 34.337,-10.333C34.683,-10.559 35.071,-10.724 35.502,-10.829C35.933,-10.935 36.358,-10.987 36.779,-10.987C37.34,-10.987 37.864,-10.925 38.35,-10.799C38.836,-10.674 39.262,-10.479 39.628,-10.213C39.993,-9.948 40.286,-9.604 40.507,-9.184C40.727,-8.763 40.852,-8.257 40.883,-7.665L40.221,-7.665Z" style="fill:white;fill-rule:nonzero;"/>
                <path d="M41.048,-10.161L41.048,-10.732L49.269,-10.732L49.269,-10.161L45.482,-10.161L45.482,0L44.82,0L44.82,-10.161L41.048,-10.161Z" style="fill:white;fill-rule:nonzero;"/>
                <path d="M49.856,-10.732L54.335,-10.732C54.806,-10.732 55.247,-10.684 55.657,-10.589C56.068,-10.494 56.429,-10.338 56.74,-10.123C57.05,-9.908 57.293,-9.624 57.469,-9.274C57.644,-8.923 57.732,-8.487 57.732,-7.966C57.732,-7.245 57.529,-6.636 57.123,-6.14C56.717,-5.644 56.153,-5.336 55.432,-5.216L55.432,-5.185C55.923,-5.125 56.311,-4.995 56.597,-4.795C56.882,-4.594 57.095,-4.349 57.236,-4.058C57.376,-3.768 57.466,-3.447 57.506,-3.096C57.546,-2.746 57.566,-2.395 57.566,-2.044L57.566,-1.428C57.566,-1.227 57.576,-1.04 57.596,-0.864C57.616,-0.689 57.649,-0.526 57.694,-0.376C57.739,-0.225 57.802,-0.1 57.882,0L57.145,0C57.005,-0.251 56.927,-0.544 56.912,-0.879C56.897,-1.215 56.89,-1.563 56.89,-1.924C56.89,-2.285 56.875,-2.643 56.845,-2.999C56.815,-3.354 56.72,-3.672 56.559,-3.953C56.399,-4.234 56.146,-4.459 55.8,-4.629C55.454,-4.8 54.966,-4.885 54.335,-4.885L50.517,-4.885L50.517,0L49.856,0L49.856,-10.732ZM54.335,-5.456C54.725,-5.456 55.089,-5.504 55.424,-5.599C55.76,-5.694 56.048,-5.842 56.289,-6.042C56.529,-6.243 56.72,-6.498 56.86,-6.809C57,-7.119 57.07,-7.49 57.07,-7.921C57.07,-8.322 56.995,-8.665 56.845,-8.951C56.694,-9.236 56.494,-9.469 56.244,-9.649C55.993,-9.83 55.702,-9.96 55.372,-10.04C55.041,-10.12 54.695,-10.161 54.335,-10.161L50.517,-10.161L50.517,-5.456L54.335,-5.456Z" style="fill:white;fill-rule:nonzero;"/>
                <rect x="59.174" y="-10.732" width="0.661" height="10.732" style="fill:white;fill-rule:nonzero;"/>
                <path d="M64.766,-10.732L65.487,-10.732L69.726,0L69.019,0L67.667,-3.442L62.526,-3.442L61.158,0L60.452,0L64.766,-10.732ZM67.456,-4.013L65.157,-10.085L65.126,-10.085L62.737,-4.013L67.456,-4.013Z" style="fill:white;fill-rule:nonzero;"/>
                <path d="M70.342,-10.732L71.003,-10.732L71.003,-0.571L77.091,-0.571L77.091,0L70.342,0L70.342,-10.732Z" style="fill:white;fill-rule:nonzero;"/>
                <path d="M84.921,-10.732L85.643,-10.732L89.881,0L89.175,0L87.822,-3.442L82.682,-3.442L81.314,0L80.608,0L84.921,-10.732ZM87.612,-4.013L85.312,-10.085L85.282,-10.085L82.892,-4.013L87.612,-4.013Z" style="fill:white;fill-rule:nonzero;"/>
                <rect x="90.498" y="-10.732" width="0.661" height="10.732" style="fill:white;fill-rule:nonzero;"/>
            </g>
            <g transform="matrix(0.0831722,0,0,0.0831722,1333.19,-191.019)">
                <g transform="matrix(1.13432,0,0,1.13432,-236.706,4232)">
                    <path d="M4076.6,1471.4L4640.6,276.5L4974.8,981.9L4778.7,981.9L4640.5,692L4272.4,1471.4L4076.6,1471.4Z" style="fill:white;fill-rule:nonzero;"/>
                </g>
                <g transform="matrix(1.13432,0,0,1.13432,-236.706,4232)">
                    <path d="M5096.8,1239.6L5206.5,1471.3L5011.8,1471.3L4901.4,1239.6L5096.8,1239.6Z" style="fill:white;fill-rule:nonzero;"/>
                </g>
                <g transform="matrix(1.13432,0,0,1.13432,-236.706,4232)">
                    <path d="M3622.2,1471.4L3188.5,1471.4L3188.5,276.4L3621.6,276.4C3950,277.6 4216.2,544.5 4216.2,873.1C4216.2,1201.7 3950.5,1470.2 3622.2,1471.4ZM3621.6,1285.5C3848.2,1284.4 4031.8,1100 4031.8,873.2C4031.8,646.3 3848.2,462 3621.6,460.9L3375.5,460.9L3375.5,1285.6L3621.6,1285.5Z" style="fill:white;fill-rule:nonzero;"/>
                </g>
                <g transform="matrix(1.13432,0,0,1.13432,-236.706,4232)">
                    <path d="M2922.9,276.4L3108.9,276.4L3108.9,1471.2L2215.1,671L2215.1,1471.3L2028.2,1471.3L2028.2,276.4L2922.9,1071.1L2922.9,276.4Z" style="fill:white;fill-rule:nonzero;"/>
                </g>
                <g transform="matrix(1.13432,0,0,1.13432,-236.706,4232)">
                    <path d="M1945.8,1471.3L1751,1471.3L1621.2,1198.8L1193.7,1198.5L1276.8,1022.6L1537.3,1022.6L1384,700.7L1020,1471.3L818,1471.3L1380.2,276.5L1945.8,1471.3Z" style="fill:white;fill-rule:nonzero;"/>
                </g>
                <g transform="matrix(1.13432,0,0,1.13432,-236.706,4232)">
                    <path d="M394,916.3L650.8,916.3C776.2,916.3 877.9,814.3 877.9,688.9C877.9,563.5 776.1,461.7 650.7,461.7L394,461.7L394,916.3ZM649.3,1101.8L393.9,1101.8L393.9,1471.3L208.7,1471.3L208.7,276.4L651.1,276.4C879,276.4 1063.5,460.9 1063.5,688.8C1063.5,916.7 878.5,1101.7 650.6,1101.7C650.2,1101.8 649.8,1101.8 649.3,1101.8Z" style="fill:white;fill-rule:nonzero;"/>
                </g>
                <g transform="matrix(1.13432,0,0,1.13432,-236.706,3599.73)">
                    <path d="M4741.5,1579.8L4741.5,1756.2L4446.2,1756.2L4529.5,1579.8L4741.5,1579.8Z" style="fill:rgb(236,0,140);fill-rule:nonzero;"/>
                </g>
                <g transform="matrix(1.13432,0,0,1.13432,-236.706,3599.73)">
                    <path d="M4994,1579.8L5077.4,1756.2L4782.1,1756.2L4782.1,1579.8L4994,1579.8Z" style="fill:rgb(73,199,255);fill-rule:nonzero;"/>
                </g>
            </g>
            <g transform="matrix(2.66181,0,0,2.66181,-1829.54,-1013.55)">
                <path d="M1188.19,499.087L1188.86,499.087L1191.66,509.112L1191.69,509.112L1194.53,499.087L1195.36,499.087L1198.24,509.112L1198.27,509.112L1201.02,499.087L1201.73,499.087L1198.65,509.819L1197.89,509.819L1194.95,499.658L1194.92,499.658L1192.02,509.819L1191.28,509.819L1188.19,499.087Z" style="fill:white;fill-rule:nonzero;"/>
                <path d="M1202.43,499.087L1209.65,499.087L1209.65,499.658L1203.1,499.658L1203.1,503.957L1209.26,503.957L1209.26,504.528L1203.1,504.528L1203.1,509.248L1209.72,509.248L1209.72,509.819L1202.43,509.819L1202.43,499.087Z" style="fill:white;fill-rule:nonzero;"/>
                <path d="M1214.92,499.087L1222.65,499.087L1222.65,500.71L1216.8,500.71L1216.8,503.521L1222.21,503.521L1222.21,505.054L1216.8,505.054L1216.8,508.196L1222.76,508.196L1222.76,509.819L1214.92,509.819L1214.92,499.087Z" style="fill:white;fill-rule:nonzero;"/>
                <path d="M1224.17,499.087L1226.15,499.087L1231.05,506.993L1231.08,506.993L1231.08,499.087L1232.87,499.087L1232.87,509.819L1230.89,509.819L1226,501.928L1225.96,501.928L1225.96,509.819L1224.17,509.819L1224.17,499.087Z" style="fill:white;fill-rule:nonzero;"/>
                <path d="M1237.82,499.087L1239.82,499.087L1243.95,509.819L1241.93,509.819L1240.93,506.978L1236.64,506.978L1235.64,509.819L1233.7,509.819L1237.82,499.087ZM1237.15,505.55L1240.43,505.55L1238.82,500.936L1238.78,500.936L1237.15,505.55Z" style="fill:white;fill-rule:nonzero;"/>
                <path d="M1246.7,503.581L1249.77,503.581C1250.22,503.581 1250.59,503.453 1250.89,503.198C1251.19,502.942 1251.34,502.574 1251.34,502.093C1251.34,501.552 1251.21,501.171 1250.94,500.951C1250.67,500.73 1250.28,500.62 1249.77,500.62L1246.7,500.62L1246.7,503.581ZM1244.82,499.087L1250.04,499.087C1251,499.087 1251.77,499.308 1252.35,499.748C1252.93,500.189 1253.22,500.856 1253.22,501.748C1253.22,502.289 1253.09,502.752 1252.82,503.138C1252.56,503.524 1252.18,503.822 1251.69,504.032L1251.69,504.062C1252.35,504.202 1252.85,504.516 1253.19,505.002C1253.53,505.488 1253.7,506.096 1253.7,506.828C1253.7,507.249 1253.63,507.642 1253.48,508.008C1253.33,508.373 1253.09,508.689 1252.77,508.955C1252.45,509.22 1252.04,509.431 1251.54,509.586C1251.04,509.741 1250.44,509.819 1249.75,509.819L1244.82,509.819L1244.82,499.087ZM1246.7,508.286L1250.02,508.286C1250.59,508.286 1251.04,508.138 1251.35,507.842C1251.67,507.547 1251.82,507.128 1251.82,506.587C1251.82,506.056 1251.67,505.648 1251.35,505.362C1251.04,505.077 1250.59,504.934 1250.02,504.934L1246.7,504.934L1246.7,508.286Z" style="fill:white;fill-rule:nonzero;"/>
                <path d="M1255.25,499.087L1257.13,499.087L1257.13,508.196L1262.59,508.196L1262.59,509.819L1255.25,509.819L1255.25,499.087Z" style="fill:white;fill-rule:nonzero;"/>
                <path d="M1263.73,499.087L1271.45,499.087L1271.45,500.71L1265.61,500.71L1265.61,503.521L1271.02,503.521L1271.02,505.054L1265.61,505.054L1265.61,508.196L1271.56,508.196L1271.56,509.819L1263.73,509.819L1263.73,499.087Z" style="fill:white;fill-rule:nonzero;"/>
            </g>
        </g>
    </g>
</svg>
